<?xml version="1.0" encoding="utf-8"?>
<!-- Generator: Adobe Illustrator 16.0.0, SVG Export Plug-In . SVG Version: 6.00 Build 0)  -->
<!DOCTYPE svg PUBLIC "-//W3C//DTD SVG 1.1//EN" "http://www.w3.org/Graphics/SVG/1.1/DTD/svg11.dtd">
<svg version="1.1" id="Layer_1" xmlns="http://www.w3.org/2000/svg" xmlns:xlink="http://www.w3.org/1999/xlink" x="0px" y="0px"
	 width="546.188px" height="25.875px" viewBox="0 0 546.188 25.875" enable-background="new 0 0 546.188 25.875"
	 xml:space="preserve">
<polygon fill="#FFFFFF" points="0.311,1.079 0.311,4.377 6.976,4.377 6.976,25.295 10.649,25.295 10.649,4.377 17.315,4.377 
	17.315,1.079 "/>
<g>
	<defs>
		<rect id="SVGID_1_" x="0.311" y="0.875" width="545.503" height="24.623"/>
	</defs>
	<clipPath id="SVGID_2_">
		<use xlink:href="#SVGID_1_"  overflow="visible"/>
	</clipPath>
	<path clip-path="url(#SVGID_2_)" fill="#FFFFFF" d="M35.317,25.295l-5.101-10.204h-4.593v10.204h-3.672V1.079h9.386
		c4.592,0,7.517,2.959,7.517,7.074c0,3.469-2.108,5.68-4.829,6.429l5.578,10.713H35.317z M31.065,4.378h-5.442v7.584h5.442
		c2.449,0,4.115-1.394,4.115-3.775C35.181,5.806,33.515,4.378,31.065,4.378"/>
	<rect x="46.196" y="1.079" clip-path="url(#SVGID_2_)" fill="#FFFFFF" width="3.672" height="24.216"/>
	<polygon clip-path="url(#SVGID_2_)" fill="#FFFFFF" points="74.533,25.295 63.343,8.256 63.343,25.295 59.671,25.295 59.671,1.079 
		63.037,1.079 74.226,18.084 74.226,1.079 77.9,1.079 77.9,25.295 	"/>
	<rect x="86.946" y="1.079" clip-path="url(#SVGID_2_)" fill="#FFFFFF" width="3.672" height="24.216"/>
	<polygon clip-path="url(#SVGID_2_)" fill="#FFFFFF" points="107.863,4.378 107.863,25.295 104.189,25.295 104.189,4.378 
		97.524,4.378 97.524,1.079 114.529,1.079 114.529,4.378 	"/>
	<polygon clip-path="url(#SVGID_2_)" fill="#FFFFFF" points="127.542,15.329 127.542,25.294 123.869,25.294 123.869,15.329 
		116.625,1.079 120.638,1.079 125.706,11.724 130.774,1.079 134.786,1.079 	"/>
	<polygon clip-path="url(#SVGID_2_)" fill="#FFFFFF" points="173.754,25.295 170.558,25.295 165.626,8.323 160.729,25.295 
		157.532,25.295 151.205,1.079 155.083,1.079 159.3,18.391 164.164,1.079 167.122,1.079 171.986,18.391 176.203,1.079 180.08,1.079 
			"/>
	<polygon clip-path="url(#SVGID_2_)" fill="#FFFFFF" points="186.339,25.295 186.339,1.079 201.814,1.079 201.814,4.377 
		190.013,4.377 190.013,11.452 200.08,11.452 200.08,14.717 190.013,14.717 190.013,21.996 201.814,21.996 201.814,25.295 	"/>
	<path clip-path="url(#SVGID_2_)" fill="#FFFFFF" d="M215.999,25.498c-3.639,0-6.259-0.85-8.571-3.197l2.448-2.413
		c1.77,1.767,3.708,2.312,6.191,2.312c3.163,0,5-1.359,5-3.707c0-1.054-0.307-1.939-0.953-2.517
		c-0.612-0.578-1.224-0.815-2.653-1.021l-2.857-0.407c-1.972-0.272-3.537-0.952-4.591-1.939c-1.191-1.122-1.769-2.652-1.769-4.626
		c0-4.217,3.061-7.108,8.095-7.108c3.196,0,5.442,0.816,7.517,2.755l-2.348,2.313c-1.497-1.428-3.23-1.871-5.271-1.871
		c-2.858,0-4.422,1.633-4.422,3.775c0,0.885,0.272,1.668,0.919,2.246c0.612,0.543,1.598,0.952,2.72,1.121l2.755,0.409
		c2.245,0.34,3.503,0.884,4.524,1.802c1.326,1.157,1.973,2.891,1.973,4.966C224.706,22.846,221.066,25.498,215.999,25.498"/>
	<polygon clip-path="url(#SVGID_2_)" fill="#FFFFFF" points="238.285,4.378 238.285,25.295 234.612,25.295 234.612,4.378 
		227.948,4.378 227.948,1.079 244.951,1.079 244.951,4.378 	"/>
	<polygon clip-path="url(#SVGID_2_)" fill="#FFFFFF" points="251.856,25.295 251.856,1.079 267.332,1.079 267.332,4.377 
		255.529,4.377 255.529,11.452 265.597,11.452 265.597,14.717 255.529,14.717 255.529,21.996 267.332,21.996 267.332,25.295 	"/>
	<path clip-path="url(#SVGID_2_)" fill="#FFFFFF" d="M288.455,25.295l-5.101-10.204h-4.595v10.204h-3.674V1.079h9.388
		c4.592,0,7.515,2.959,7.515,7.074c0,3.469-2.106,5.68-4.827,6.429l5.575,10.713H288.455z M284.204,4.378h-5.444v7.584h5.444
		c2.449,0,4.113-1.394,4.113-3.775C288.317,5.806,286.653,4.378,284.204,4.378"/>
	<polygon clip-path="url(#SVGID_2_)" fill="#FFFFFF" points="314.946,25.295 303.762,8.256 303.762,25.295 300.086,25.295 
		300.086,1.079 303.454,1.079 314.641,18.084 314.641,1.079 318.318,1.079 318.318,25.295 	"/>
	<path clip-path="url(#SVGID_2_)" fill="#FFFFFF" d="M348.813,25.498c-4.929,0-8.671-3.365-8.671-8.365V1.079h3.676v15.884
		c0,3.229,1.971,5.236,4.995,5.236c3.029,0,5.036-2.007,5.036-5.236V1.079h3.671v16.054
		C357.521,22.133,353.748,25.498,348.813,25.498"/>
	<polygon clip-path="url(#SVGID_2_)" fill="#FFFFFF" points="381.06,25.295 369.867,8.256 369.867,25.295 366.196,25.295 
		366.196,1.079 369.562,1.079 380.748,18.084 380.748,1.079 384.425,1.079 384.425,25.295 	"/>
	<rect x="393.472" y="1.079" clip-path="url(#SVGID_2_)" fill="#FFFFFF" width="3.671" height="24.216"/>
	<polygon clip-path="url(#SVGID_2_)" fill="#FFFFFF" points="414.013,25.295 411.156,25.295 403.197,1.079 407.006,1.079 
		412.587,18.695 418.163,1.079 422.042,1.079 	"/>
	<polygon clip-path="url(#SVGID_2_)" fill="#FFFFFF" points="428.096,25.295 428.096,1.079 443.569,1.079 443.569,4.377 
		431.768,4.377 431.768,11.452 441.832,11.452 441.832,14.717 431.768,14.717 431.768,21.996 443.569,21.996 443.569,25.295 	"/>
	<path clip-path="url(#SVGID_2_)" fill="#FFFFFF" d="M464.693,25.295l-5.102-10.204H455v10.204h-3.676V1.079h9.388
		c4.594,0,7.516,2.959,7.516,7.074c0,3.469-2.107,5.68-4.827,6.429l5.576,10.713H464.693z M460.441,4.378H455v7.584h5.441
		c2.449,0,4.115-1.394,4.115-3.775C464.557,5.806,462.891,4.378,460.441,4.378"/>
	<path clip-path="url(#SVGID_2_)" fill="#FFFFFF" d="M482.754,25.498c-3.639,0-6.258-0.85-8.569-3.197l2.449-2.413
		c1.767,1.767,3.707,2.312,6.187,2.312c3.162,0,5-1.359,5-3.707c0-1.054-0.305-1.939-0.951-2.517
		c-0.612-0.578-1.223-0.815-2.652-1.021l-2.857-0.407c-1.971-0.272-3.539-0.952-4.594-1.939c-1.186-1.122-1.767-2.652-1.767-4.626
		c0-4.217,3.061-7.108,8.097-7.108c3.198,0,5.438,0.816,7.516,2.755l-2.348,2.313c-1.497-1.428-3.232-1.871-5.27-1.871
		c-2.857,0-4.426,1.633-4.426,3.775c0,0.885,0.276,1.668,0.923,2.246c0.609,0.543,1.599,0.952,2.719,1.121l2.755,0.409
		c2.245,0.34,3.503,0.884,4.521,1.802c1.328,1.157,1.975,2.891,1.975,4.966C491.461,22.846,487.82,25.498,482.754,25.498"/>
	<rect x="499.113" y="1.079" clip-path="url(#SVGID_2_)" fill="#FFFFFF" width="3.671" height="24.216"/>
	<polygon clip-path="url(#SVGID_2_)" fill="#FFFFFF" points="518.893,4.378 518.893,25.295 515.217,25.295 515.217,4.378 
		508.551,4.378 508.551,1.079 525.557,1.079 525.557,4.378 	"/>
	<polygon clip-path="url(#SVGID_2_)" fill="#FFFFFF" points="538.568,15.329 538.568,25.294 534.896,25.294 534.896,15.329 
		527.652,1.079 531.664,1.079 536.736,11.724 541.802,1.079 545.814,1.079 	"/>
</g>
</svg>
