<?xml version="1.0" encoding="utf-8"?>
<!-- Generator: Adobe Illustrator 16.0.0, SVG Export Plug-In . SVG Version: 6.00 Build 0)  -->
<!DOCTYPE svg PUBLIC "-//W3C//DTD SVG 1.1//EN" "http://www.w3.org/Graphics/SVG/1.1/DTD/svg11.dtd">
<svg version="1.1" id="Layer_1" xmlns="http://www.w3.org/2000/svg" xmlns:xlink="http://www.w3.org/1999/xlink" x="0px" y="0px"
	 width="228.25px" height="97.625px" viewBox="0 0 228.25 97.625" enable-background="new 0 0 228.25 97.625" xml:space="preserve">
<g>
	<defs>
		<rect id="SVGID_1_" x="0.438" y="0.657" width="227.473" height="96.655"/>
	</defs>
	<clipPath id="SVGID_2_">
		<use xlink:href="#SVGID_1_"  overflow="visible"/>
	</clipPath>
	<path clip-path="url(#SVGID_2_)" fill="#FFFFFF" d="M32.296,31.645c-6.348-5.731-6.83-7.882,0.374-15.885
		c5.365-5.961,3.819-11.43,2.826-15.104c3.936,2.774,6.326,5.434,6.63,9.044c0.106,1.239,0.16,2.731-0.229,4.161
		c-0.622,2.27-1.991,4.451-3.239,5.727c-3.516,3.601-5.775,6.714-6.231,8.842c-0.111,0.518-0.166,1.103-0.194,1.625
		C32.196,30.767,32.296,31.645,32.296,31.645"/>
	<path clip-path="url(#SVGID_2_)" fill="#FFFFFF" d="M26.425,24.35c-4.077-4.846-5.095-7.904-1.672-11.418
		c2.264-2.328,1.718-5.638-0.195-7.817C31.62,8.26,33.304,13.362,30.014,17c-1.678,1.852-2.713,3.329-3.185,4.77
		c-0.201,0.615-0.277,1.021-0.345,1.519C26.389,23.967,26.425,24.35,26.425,24.35"/>
	<path clip-path="url(#SVGID_2_)" fill="#FFFFFF" d="M36.389,37.877c-3.91-5.522-4.863-10.034,3.202-17.082
		c2.059-1.8,3.756-3.398,4.776-5.187c1.961-3.43,2.042-6.919,1.669-9.396c3.592,3.244,4.006,6.269,3.895,9.89
		c-0.037,1.244-0.412,2.586-0.963,3.957c-0.876,2.177-2.623,4.081-3.87,5.282c-1.641,1.586-4.153,3.482-5.378,5.173
		C36.886,34.419,36.389,37.877,36.389,37.877"/>
	<path clip-path="url(#SVGID_2_)" fill="#FFFFFF" d="M30.088,42.324C23.196,32.101,5.624,31.865,5.624,31.865l-5.186-9.019
		C23.61,24.291,28.167,32.778,30.088,42.324"/>
	<path clip-path="url(#SVGID_2_)" fill="#FFFFFF" d="M42.147,42.324c6.892-10.224,24.465-10.459,24.465-10.459l5.184-9.019
		C48.627,24.291,44.069,32.78,42.147,42.324"/>
	<path clip-path="url(#SVGID_2_)" fill="#FFFFFF" d="M35.188,97.293C32.53,38.367,30.275,37.488,6.085,33.282
		C23.554,39.12,25.042,57.847,27.75,97.293H35.188z"/>
	<path clip-path="url(#SVGID_2_)" fill="#FFFFFF" d="M37.086,97.293h7.435c2.711-39.446,4.198-58.173,21.671-64.011
		C41.999,37.488,39.747,38.367,37.086,97.293"/>
	<polygon clip-path="url(#SVGID_2_)" fill="#FFFFFF" points="88.392,25.441 88.392,41.619 85.55,41.619 85.55,25.441 80.395,25.441 
		80.395,22.892 93.545,22.892 93.545,25.441 	"/>
	<path clip-path="url(#SVGID_2_)" fill="#FFFFFF" d="M107.121,41.619l-3.946-7.892h-3.551v7.892h-2.84V22.892h7.259
		c3.55,0,5.812,2.288,5.812,5.471c0,2.684-1.63,4.393-3.733,4.97l4.313,8.287H107.121z M103.833,25.441h-4.209v5.866h4.209
		c1.894,0,3.182-1.077,3.182-2.919S105.727,25.441,103.833,25.441"/>
	<rect x="114.014" y="22.893" clip-path="url(#SVGID_2_)" fill="#FFFFFF" width="2.841" height="18.727"/>
	<polygon clip-path="url(#SVGID_2_)" fill="#FFFFFF" points="133.242,41.619 124.588,28.439 124.588,41.619 121.75,41.619 
		121.75,22.892 124.351,22.892 133.007,36.044 133.007,22.892 135.846,22.892 135.846,41.619 	"/>
	<rect x="140.742" y="22.893" clip-path="url(#SVGID_2_)" fill="#FFFFFF" width="2.838" height="18.727"/>
	<polygon clip-path="url(#SVGID_2_)" fill="#FFFFFF" points="154.814,25.441 154.814,41.619 151.973,41.619 151.973,25.441 
		146.816,25.441 146.816,22.892 159.967,22.892 159.967,25.441 	"/>
	<polygon clip-path="url(#SVGID_2_)" fill="#FFFFFF" points="169.334,33.912 169.334,41.619 166.493,41.619 166.493,33.912 
		160.891,22.892 163.996,22.892 167.914,31.124 171.832,22.892 174.936,22.892 	"/>
	<polygon clip-path="url(#SVGID_2_)" fill="#FFFFFF" points="99.197,69.386 96.725,69.386 92.913,56.262 89.124,69.386 
		86.653,69.386 81.76,50.659 84.756,50.659 88.021,64.048 91.781,50.659 94.069,50.659 97.83,64.048 101.09,50.659 104.092,50.659 	
		"/>
	<polygon clip-path="url(#SVGID_2_)" fill="#FFFFFF" points="106.826,69.386 106.826,50.659 118.797,50.659 118.797,53.209 
		109.668,53.209 109.668,58.681 117.455,58.681 117.455,61.204 109.668,61.204 109.668,66.834 118.797,66.834 118.797,69.386 	"/>
	<path clip-path="url(#SVGID_2_)" fill="#FFFFFF" d="M127.66,69.542c-2.813,0-4.84-0.654-6.625-2.47l1.893-1.87
		c1.367,1.37,2.865,1.79,4.785,1.79c2.447,0,3.865-1.053,3.865-2.867c0-0.815-0.234-1.498-0.733-1.945
		c-0.474-0.447-0.947-0.632-2.054-0.789l-2.209-0.316c-1.525-0.21-2.733-0.735-3.549-1.501c-0.92-0.866-1.369-2.049-1.369-3.574
		c0-3.261,2.367-5.498,6.262-5.498c2.472,0,4.208,0.631,5.811,2.13l-1.812,1.788c-1.159-1.104-2.498-1.446-4.078-1.446
		c-2.21,0-3.42,1.262-3.42,2.921c0,0.683,0.21,1.288,0.71,1.735c0.474,0.42,1.236,0.737,2.104,0.868l2.131,0.314
		c1.736,0.263,2.709,0.684,3.498,1.396c1.027,0.893,1.527,2.234,1.527,3.84C134.396,67.492,131.578,69.542,127.66,69.542"/>
	<polygon clip-path="url(#SVGID_2_)" fill="#FFFFFF" points="144.553,53.209 144.553,69.385 141.711,69.385 141.711,53.209 
		136.555,53.209 136.555,50.659 149.707,50.659 149.707,53.209 	"/>
	<polygon clip-path="url(#SVGID_2_)" fill="#FFFFFF" points="152.941,69.386 152.941,50.659 164.908,50.659 164.908,53.209 
		155.785,53.209 155.785,58.681 163.568,58.681 163.568,61.204 155.785,61.204 155.785,66.834 164.908,66.834 164.908,69.386 	"/>
	<path clip-path="url(#SVGID_2_)" fill="#FFFFFF" d="M179.143,69.385l-3.945-7.889h-3.551v7.889h-2.838V50.659h7.258
		c3.551,0,5.81,2.287,5.81,5.469c0,2.684-1.629,4.395-3.735,4.972l4.317,8.285H179.143z M175.854,53.209h-4.207v5.865h4.207
		c1.896,0,3.186-1.076,3.186-2.919C179.039,54.314,177.749,53.209,175.854,53.209"/>
	<polygon clip-path="url(#SVGID_2_)" fill="#FFFFFF" points="197.53,69.386 188.876,56.207 188.876,69.386 186.037,69.386 
		186.037,50.659 188.639,50.659 197.292,63.813 197.292,50.659 200.135,50.659 200.135,69.386 	"/>
	<path clip-path="url(#SVGID_2_)" fill="#FFFFFF" d="M92.199,97.313c-3.816,0-6.709-2.604-6.709-6.472V78.428h2.84v12.281
		c0,2.498,1.527,4.052,3.869,4.052c2.338,0,3.891-1.554,3.891-4.052V78.428h2.841v12.413C98.932,94.709,96.01,97.313,92.199,97.313"
		/>
	<polygon clip-path="url(#SVGID_2_)" fill="#FFFFFF" points="115.031,97.154 106.378,83.976 106.378,97.154 103.538,97.154 
		103.538,78.428 106.14,78.428 114.795,91.578 114.795,78.428 117.636,78.428 117.636,97.154 	"/>
	<rect x="122.529" y="78.428" clip-path="url(#SVGID_2_)" fill="#FFFFFF" width="2.84" height="18.727"/>
	<polygon clip-path="url(#SVGID_2_)" fill="#FFFFFF" points="136.314,97.154 134.104,97.154 127.947,78.428 130.895,78.428 
		135.209,92.051 139.523,78.428 142.521,78.428 	"/>
	<polygon clip-path="url(#SVGID_2_)" fill="#FFFFFF" points="145.098,97.154 145.098,78.428 157.064,78.428 157.064,80.978 
		147.941,80.978 147.941,86.448 155.727,86.448 155.727,88.973 147.941,88.973 147.941,94.602 157.064,94.602 157.064,97.154 	"/>
	<path clip-path="url(#SVGID_2_)" fill="#FFFFFF" d="M171.299,97.154l-3.946-7.892h-3.55v7.892h-2.84V78.428h7.258
		c3.553,0,5.813,2.287,5.813,5.468c0,2.684-1.63,4.395-3.735,4.973l4.313,8.286H171.299z M168.012,80.978h-4.209v5.865h4.209
		c1.892,0,3.182-1.078,3.182-2.919C171.193,82.082,169.903,80.978,168.012,80.978"/>
	<path clip-path="url(#SVGID_2_)" fill="#FFFFFF" d="M183.164,97.313c-2.814,0-4.841-0.658-6.627-2.472l1.893-1.87
		c1.367,1.368,2.865,1.79,4.787,1.79c2.449,0,3.865-1.055,3.865-2.867c0-0.817-0.236-1.5-0.736-1.948
		c-0.473-0.443-0.946-0.63-2.051-0.787l-2.211-0.316c-1.522-0.208-2.732-0.735-3.547-1.5c-0.923-0.868-1.369-2.049-1.369-3.577
		c0-3.262,2.365-5.497,6.258-5.497c2.475,0,4.207,0.631,5.814,2.132l-1.816,1.787c-1.156-1.104-2.495-1.446-4.074-1.446
		c-2.21,0-3.421,1.263-3.421,2.919c0,0.686,0.21,1.29,0.711,1.736c0.471,0.422,1.235,0.739,2.104,0.869l2.129,0.314
		c1.736,0.264,2.711,0.684,3.498,1.395c1.025,0.895,1.527,2.235,1.527,3.843C189.898,95.261,187.082,97.313,183.164,97.313"/>
	<rect x="193.715" y="78.428" clip-path="url(#SVGID_2_)" fill="#FFFFFF" width="2.839" height="18.727"/>
	<polygon clip-path="url(#SVGID_2_)" fill="#FFFFFF" points="207.787,80.978 207.787,97.154 204.947,97.154 204.947,80.978 
		199.793,80.978 199.793,78.428 212.941,78.428 212.941,80.978 	"/>
	<polygon clip-path="url(#SVGID_2_)" fill="#FFFFFF" points="222.307,89.446 222.307,97.154 219.468,97.154 219.468,89.446 
		213.865,78.428 216.967,78.428 220.887,86.658 224.805,78.428 227.91,78.428 	"/>
</g>
</svg>
